<svg id="Layer_1" data-name="Layer 1"
    xmlns="http://www.w3.org/2000/svg" viewBox="0 0 1408 439.11">
    <defs>
        <linearGradient id="skyGradient" x1="100%" y1="100%">
            <stop offset="0%" stop-color="darkgray" stop-opacity=".5">
                <animate attributeName="stop-color" values="darkgray;gray;lightgray;darkgray;gray;lightgray;darkgray;gray;lightgray" dur="14s" repeatCount="indefinite" />
            </stop>
            <stop offset="100%" stop-color="darkgray" stop-opacity=".5">
                <animate attributeName="stop-color" values="darkgray;gray;lightgray;darkgray;gray;lightgray;darkgray;gray;lightgray;" dur="14s" repeatCount="indefinite" />
                <animate attributeName="offset" values=".95;.80;.60;.40;.20;0;.20;.40;.60;.80;.95" dur="14s" repeatCount="indefinite" />
            </stop>
        </linearGradient>
        
        <style>.cls-1{fill:none;stroke:url(#skyGradient);stroke-linecap:round;stroke-linejoin:round;stroke-width:4px;}</style>
    </defs>
    <g id="layer12">
        <path id="path3876" class="cls-1" d="M2,383.1c-.6,1.48-3.88,6.14-.35,6.4,1.33,1.07,2.79,1.55,2.93,3.12.6,1.29,3.79,3.45,4.84,4,1.62.88,5.13-1.09,6.72.05s.62,2.31,1.77,5.7-2.49,11.35,2.07,16.45c1.52,1.72,3.86,2.09,5.79,3.21,2.25,2.41,15,6.12,18.84,5,13.1-2.52,6.33,8.05,16.7,9.66,6.46,2.08,12.12-2.59,16.13-5.49,4.59-2.73,7.41-7.08,13.5-5.65A49.7,49.7,0,0,0,121,432.4c9.12,1.13,9.94-13.92,11.84-19.95,1.41-4.49,9.45,3.89,10.63.92,4.59-6.68,7.79-6.29,11-6.5s6.86,5.48,12.27,5.64c6.42.19,14.78-5.29,20.09-7.83s10.29,2.73,13-8,3.32-15,16.1-12.24c2.79-.1,6,8,11.37,9.33,5.94,1.49,14.08-3.81,17-6.14,3.54-.66,11.26,4.63,17.11-2.55,8.53-5.23,1.66.56,10.7.27,12.67-14.59,18.48-3,28-11.05s12.39,3.75,19.5-2.89c6.68-1.95,13.15,7.72,19.83,5.41,4.43-1.25,7.73-11.53,16.36-10.41,10.14-11.74,16.09-6,23.25-.6,6.13-1.77,13.39,3.41,23.71,0s14.24.59,15.91-20.27c-3.27-3.15,1-10.49,3.24-21.8,1.57-8,.85-20.15,1.35-24.45.58-5.23,5.19-6.85,12.41-7.78,5.17-2.16,6.85-8,11.24-5.69,4.7.62,10.31-7.94,14-2.27,3.05,10.9,11.52,19.93,16.11,28.7a89.29,89.29,0,0,0,11.1,17.19c5.32,2.65,5.08,2.61,10.51,6.49,7.08,4.81,4.13,9.78,5,17.11,3,6.66,6.11,13.3,6.44,20.69s11,20.07,6,27c-3.91,9.16-21.48,16.34-30.54,14.63-7.66,0-9.35,14.72-4.6,15.27a44.6,44.6,0,0,1,16.21,5.63c6.94,2.25,15.44,6.42,21.26,1.57s9.39-11.09,17.59-8.48,7.36,14.83,12.84,14.84,11.51,1.11,14,6.59c2.69,4.54,7,6.51,12.56,8,6.38,3.35,9.89,11.75,5.54,18.06-2.12,2.8-4.17,14.65-3.05,22.27a35.11,35.11,0,0,1-9,25.58c-6.18,10.58,2,27.08.68,33.26-1.39,5.88,1.19,11.62,6.92,13.92,6.68,5.82,11.12,13.65,17.25,20,5.72,3.65,9.81,9.47,19.34,4.15,8.23-3.95,15.56,8.82,22.09,14.34,5.27,5.08,12.52,5.61,19,8.35,5.91,5.27,8,15.07,17,16.46,6.66,1.24,14.46-.06,19.87-4.33A93.13,93.13,0,0,1,710.86,613c5.21-3.85,2.4-11.91,8.77-14.59,4.3-2.41,5.54-7.77,10.15-10,4.44-5.46,1.43-12.62,4.18-18.72,1.67-6.07-4.06-9.69-6.75-13.43-2-6.74,0-13.8.87-20.43,1.52-4.73,6-10.09,11.26-6.64,6.42,1.58,9.39,10.23,16,10.13,4.46-4.12,9.75-2.45,15.15-1.93,6.32-.65,11-7.34,17.94-5.75,7.82-2.34,13.75-9.36,22.44-9.76,6.57-1,11-6.86,17-9.31,4.23-2.21,10.24-8,14.39-2.88,1.7,6.8,7.36,10.93,10.43,16.88,5.26,13.48-4.48,40.92-1.85,51s7.88,6,13.29,9.64c3.45,4.38,3.9,10.92,10.25,11.48s10-3.6,16.33-4.32,12.21,9,17.44,7.74,9.28-4.62,12.82-2.13c5.43,3.82-.45,14.31,3.57,19.59,2.72,3.57,9.63,2.12,12.12,5.85,3.55,5.3-3,14.21,1.12,19.11,4.82,5.77,15.73,1,21.93,5.29,14.09,9.68,21.25,27.06,29.1,42.26,3.05,5.91,0,14.83,6.86,18.76,9.73,4.16,11.8.13,15.45-.73,3.06-.72,3.5,2.16,10.64,0,8.64-2.22,19.38-23.65,27.19-23.78s9.79,1.61,17.53-4,15.33,9.39,20.78,14.87,15,10.92,21.17-12.74-21.19-22.36-16.14-30.89,14.08-7.44,11.06-14.77-8.57-8.81-4.08-13.79c5.3-5.6,10.22-13.15,18.88-13.08,8.29-3.17,13.3,8.95,21.68,6.06,6.24-.45,5.54-8.4,10.18-10.11,5.06-4,13-.67,13,6,1.67,6.17,4.91,10.29,15.3,12.49s15.42-7.51,19.5-15.95,32.82,4.41,34.15-18.74,22-9,38.56-4.83c6,1.41,7.56-8.43,16.88-5S1287.85,598,1296,602s12.32,2,13.51-1-1-1.89-1.25-11.34,7.79-8.37,9.81-4.49c5.54,8.66,13.45,6.77,21.88,5.82,3-.26,3.37,1.4,11.91,1.21,4.75.7,7.5-1.5,9.91-3.31,1.4-1.92,3.26-3.84,4.2-6.83,1.46-1.46,2.25-4.06,4.27-6.08.77-.77,11.89,0,11.91,0,1.15-1.15,4.09-1,5.17-2.07a7.78,7.78,0,0,1,6.75-2.57c2.73.12,3.42-.57,6,1.05" transform="translate(4 -277.58)"/>
    </g>
</svg>